<?xml version="1.0" encoding="utf-8"?>
<!-- Generator: Adobe Illustrator 16.0.0, SVG Export Plug-In . SVG Version: 6.00 Build 0)  -->
<!DOCTYPE svg PUBLIC "-//W3C//DTD SVG 1.1//EN" "http://www.w3.org/Graphics/SVG/1.1/DTD/svg11.dtd">
<svg version="1.1" id="Layer_1" xmlns="http://www.w3.org/2000/svg" xmlns:xlink="http://www.w3.org/1999/xlink" x="0px" y="0px"
	 width="321px" height="320.999px" viewBox="0 0 321 320.999" enable-background="new 0 0 321 320.999" xml:space="preserve">
<g>
	<defs>
		<rect id="SVGID_1_" x="36" y="36" width="249" height="249"/>
	</defs>
	<clipPath id="SVGID_2_">
		<use xlink:href="#SVGID_1_" />
	</clipPath>
	<g clip-path="url(#SVGID_2_)">
		<path fill="#00AEEF" d="M56.531,88.506h22.787l4.927,12.086h12.394L73.544,46.32H62.613l-23.096,54.272
			h12.086L56.531,88.506z M67.925,60.562l7.16,17.475H60.764L67.925,60.562z M120.66,101.362c6.083,0,10.008-2.849,12.856-6.697
			v18.244h11.702V59.33h-11.702v5.389c-2.772-3.31-6.621-6.159-12.856-6.159c-9.777,0-18.784,7.544-18.784,21.325v0.153
			C101.876,93.818,111.037,101.362,120.66,101.362z M113.578,79.884c0-6.929,4.619-11.394,10.084-11.394s10.008,4.542,10.008,11.394
			v0.153c0,6.852-4.542,11.394-10.008,11.394s-10.084-4.542-10.084-11.394V79.884z M157.305,86.043V59.33h11.702v23.018
			c0,5.543,2.616,8.391,7.082,8.391c4.465,0,7.312-2.848,7.312-8.391V59.33h11.7v41.263h-11.7v-5.851
			c-2.694,3.464-6.158,6.621-12.085,6.621C162.462,101.362,157.305,95.511,157.305,86.043z M208.037,100.592V59.33h11.699v41.263
			H208.037z M220.046,54.788h-12.317V44.395h12.317V54.788z M71.851,114.812l10.084,4.388l-9.853,9.238h-8.93L71.851,114.812z
			 M56.531,174.474h22.787l4.927,12.085h12.394l-23.094-54.272H62.613l-23.096,54.272h12.086L56.531,174.474z M67.925,146.528
			l7.16,17.476H60.764L67.925,146.528z M120.197,183.172c6.236,0,10.006-2.541,13.472-6.698v2.002c0,7.391-3.771,11.24-11.778,11.24
			c-5.465,0-9.699-1.386-13.933-3.772l-4.003,8.776c5.235,2.771,11.548,4.311,18.245,4.311c8.004,0,13.934-1.694,17.783-5.543
			c3.463-3.464,5.235-8.853,5.235-16.243v-31.947h-11.703v5.388c-3.155-3.464-6.927-6.159-13.317-6.159
			c-9.468,0-18.322,6.929-18.322,19.247v0.152C101.875,176.166,110.575,183.172,120.197,183.172z M113.577,163.773
			c0-5.621,4.309-9.547,10.008-9.547c5.696,0,10.084,3.926,10.084,9.547v0.152c0,5.621-4.388,9.546-10.084,9.546
			c-5.699,0-10.008-3.849-10.008-9.546V163.773z M155.379,172.01v-26.713h11.701v23.018c0,5.543,2.616,8.391,7.083,8.391
			c4.464,0,7.312-2.848,7.312-8.391v-23.018h11.702v41.262h-11.702v-5.85c-2.694,3.463-6.158,6.621-12.085,6.621
			C160.536,187.33,155.379,181.479,155.379,172.01z M215.35,187.33c5.697,0,9.623-2.08,12.471-5.235v4.464h11.315v-23.941
			c0-5.542-1.384-10.084-4.464-13.164c-2.926-2.925-7.544-4.619-13.934-4.619c-7.007,0-11.47,1.309-16.013,3.31l2.927,8.931
			c3.771-1.386,6.928-2.232,11.393-2.232c5.852,0,8.854,2.694,8.854,7.544v0.692c-2.926-1-5.928-1.693-10.087-1.693
			c-9.774,0-16.626,4.156-16.626,13.164v0.154C201.186,182.864,207.574,187.33,215.35,187.33z M212.501,174.088
			c0-3.695,3.08-5.696,8.084-5.696c2.848,0,5.464,0.615,7.467,1.539v2.079c0,4.233-3.695,7.235-9.161,7.235
			c-3.771,0-6.39-1.847-6.39-5.003V174.088z M279.478,173.857v0.152c0,9.162-6.852,13.32-15.781,13.32
			c-5.774,0-12.241-1.925-17.707-6.236l5.005-7.699c4.465,3.234,9.159,4.928,13.009,4.928c3.388,0,4.928-1.232,4.928-3.079v-0.154
			c0-2.54-4.003-3.387-8.545-4.772c-5.774-1.694-12.317-4.389-12.317-12.395v-0.153c0-8.392,6.775-13.087,15.089-13.087
			c5.233,0,10.931,1.771,15.396,4.773l-4.465,8.083c-4.079-2.386-8.16-3.849-11.161-3.849c-2.85,0-4.312,1.231-4.312,2.849v0.153
			c0,2.31,3.926,3.388,8.391,4.927C272.78,163.541,279.478,166.312,279.478,173.857z M83.937,256.205l7.544,7.621
			c-5.544,5.927-11.702,9.623-22.094,9.623c-15.858,0-27.637-12.239-27.637-27.714v-0.153c0-15.319,11.548-27.867,28.099-27.867
			c10.161,0,16.243,3.386,21.247,8.312l-7.544,8.699c-4.159-3.771-8.391-6.08-13.782-6.08c-9.082,0-15.625,7.543-15.625,16.78v0.155
			c0,9.237,6.389,16.936,15.625,16.936C75.93,262.518,79.703,260.055,83.937,256.205z M112.882,272.524h-11.701v-56.195h11.701
			V272.524z M141.906,230.802c-7.005,0-11.47,1.309-16.012,3.311l2.926,8.929c3.772-1.386,6.928-2.232,11.393-2.232
			c5.852,0,8.854,2.693,8.854,7.545v0.692c-2.926-1-5.93-1.694-10.086-1.694c-9.776,0-16.628,4.157-16.628,13.164v0.155
			c0,8.16,6.39,12.626,14.165,12.626c5.698,0,9.624-2.08,12.472-5.235v4.463h11.316v-23.939c0-5.544-1.385-10.085-4.465-13.165
			C152.913,232.496,148.294,230.802,141.906,230.802z M149.219,257.978c0,4.232-3.695,7.234-9.161,7.234
			c-3.772,0-6.39-1.847-6.39-5.005v-0.152c0-3.696,3.08-5.696,8.082-5.696c2.85,0,5.467,0.614,7.468,1.539V257.978z M196.18,230.493
			v12.24h-0.615c-7.776,0-12.549,4.696-12.549,14.55v15.241h-11.701v-41.262h11.701v8.315
			C185.402,233.882,189.252,230.186,196.18,230.493z M214.195,273.297c5.696,0,9.623-2.08,12.472-5.235v4.463h11.315v-23.939
			c0-5.544-1.385-10.085-4.464-13.165c-2.926-2.924-7.545-4.618-13.934-4.618c-7.006,0-11.471,1.309-16.013,3.311l2.925,8.929
			c3.771-1.386,6.929-2.232,11.394-2.232c5.851,0,8.854,2.693,8.854,7.545v0.692c-2.926-1-5.928-1.694-10.085-1.694
			c-9.776,0-16.628,4.157-16.628,13.164v0.155C200.031,268.831,206.419,273.297,214.195,273.297z M211.348,260.055
			c0-3.696,3.08-5.696,8.083-5.696c2.848,0,5.466,0.614,7.467,1.539v2.08c0,4.232-3.695,7.234-9.161,7.234
			c-3.771,0-6.389-1.847-6.389-5.005V260.055z M279.247,259.824v0.152c0,9.162-6.852,13.32-15.782,13.32
			c-5.773,0-12.24-1.925-17.706-6.238l5.005-7.698c4.464,3.235,9.159,4.927,13.009,4.927c3.388,0,4.928-1.23,4.928-3.077v-0.155
			c0-2.539-4.003-3.386-8.547-4.771c-5.773-1.694-12.315-4.389-12.315-12.395v-0.153c0-8.393,6.774-13.089,15.089-13.089
			c5.235,0,10.931,1.771,15.396,4.773l-4.465,8.082c-4.081-2.386-8.16-3.849-11.161-3.849c-2.85,0-4.312,1.232-4.312,2.849v0.153
			c0,2.311,3.926,3.388,8.391,4.927C272.55,249.507,279.247,252.278,279.247,259.824z"/>
		<g clip-path="url(#SVGID_2_)">
			<defs>
				<rect id="SVGID_3_" x="235.178" y="55.5" width="45.092" height="45.092"/>
			</defs>
			<clipPath id="SVGID_4_">
				<use xlink:href="#SVGID_3_" />
			</clipPath>
			<polygon clip-path="url(#SVGID_4_)" fill="#00AEEF" points="261.578,89.644 239.601,67.667 247.344,59.924 269.319,81.9 
				269.319,59.924 280.27,59.924 280.27,100.592 239.602,100.592 239.602,89.643 		"/>
		</g>
	</g>
</g>
<path fill="#00AEEF" d="M321,321H0V0h321V321z M309.452,11.548H11.548v297.904h297.904V11.548z"/>
</svg>
